<?xml version="1.0" encoding="utf-8"?>
<!-- Svg Vector Icons : http://www.onlinewebfonts.com/icon -->
<!DOCTYPE svg PUBLIC "-//W3C//DTD SVG 1.1//EN" "http://www.w3.org/Graphics/SVG/1.1/DTD/svg11.dtd">
<svg version="1.1" xmlns="http://www.w3.org/2000/svg" xmlns:xlink="http://www.w3.org/1999/xlink" x="0px" y="0px" viewBox="0 0 1000 1000" enable-background="new 0 0 1000 1000" xml:space="preserve">
<metadata> Svg Vector Icons : http://www.onlinewebfonts.com/icon </metadata>
<g><path d="M867.5,745h-490C309.9,745,255,690.2,255,622.5v-490C255,64.9,309.9,10,377.5,10h490C935.2,10,990,64.9,990,132.5v490C990,690.2,935.2,745,867.5,745z M928.7,132.5c0-33.8-27.4-61.3-61.2-61.3h-490c-33.8,0-61.2,27.4-61.2,61.3v490c0,33.8,27.4,61.3,61.2,61.3h490c33.8,0,61.2-27.4,61.2-61.3L928.7,132.5L928.7,132.5z M71.3,377.5v490c0,33.8,27.4,61.2,61.3,61.2h490c33.8,0,61.3-27.4,61.3-61.2v-61.3H745v61.3c0,67.6-54.8,122.5-122.5,122.5h-490C64.8,990,10,935.1,10,867.5v-490C10,309.9,64.8,255,132.5,255h61.2v61.2h-61.2C98.7,316.3,71.3,343.7,71.3,377.5z"/></g>
</svg>